<?xml version="1.0" encoding="utf-8"?>
<svg version="1.2" baseProfile="tiny" id="Layer_1" xmlns="http://www.w3.org/2000/svg" xmlns:xlink="http://www.w3.org/1999/xlink"
	 x="0px" y="0px" viewBox="0 0 2564.9 2563.9" overflow="visible" xml:space="preserve">
<g id="Background">
	<path stroke="#00FF04" stroke-miterlimit="10" d="M2159,2528.5H416.9c-204.4,0-370.1-165.7-370.1-370.1V416.3
		c0-204.4,165.7-370.1,370.1-370.1H2159c204.4,0,370.1,165.7,370.1,370.1v1742.1C2529.1,2362.8,2363.4,2528.5,2159,2528.5z"/>
</g>
<g id="Orange">
	<path fill="#FF6600" stroke="#00FF04" stroke-miterlimit="10" d="M939.2,1258.5H549.5c-176.6,0-319.8-143.2-319.8-319.8V549.1
		c0-176.6,143.2-319.8,319.8-319.8h389.7c176.6,0,319.8,143.2,319.8,319.8v389.7C1259,1115.4,1115.8,1258.5,939.2,1258.5z"/>
</g>
<g id="Red">
	<path fill="#FF0000" stroke="#00FF04" stroke-miterlimit="10" d="M2027.4,1232.9h-389.7c-176.6,0-319.8-143.2-319.8-319.8V523.5
		c0-176.6,143.2-319.8,319.8-319.8h389.7c176.6,0,319.8,143.2,319.8,319.8v389.7C2347.1,1089.8,2204,1232.9,2027.4,1232.9z"/>
</g>
<g id="Green">
	<path fill="#00CC00" stroke="#00FF04" stroke-miterlimit="10" d="M2047.7,2355.5H1658c-176.6,0-319.8-143.2-319.8-319.8V1646
		c0-176.6,143.2-319.8,319.8-319.8h389.7c176.6,0,319.8,143.2,319.8,319.8v389.7C2367.4,2212.4,2224.3,2355.5,2047.7,2355.5z"/>
</g>
<g id="Blue">
	<path fill="#3300FF" stroke="#00FF04" stroke-miterlimit="10" d="M939.2,2355.5H549.5c-176.6,0-319.8-143.2-319.8-319.8V1646
		c0-176.6,143.2-319.8,319.8-319.8h389.7c176.6,0,319.8,143.2,319.8,319.8v389.7C1259,2212.4,1115.8,2355.5,939.2,2355.5z"/>
</g>
<g id="AppColor">
	<path fill="#db570b" d="M1003.8,2431.1l-869.4-869.4c-154.6-154.6-154.6-405.4,0-560l869.4-869.4c154.6-154.6,405.4-154.6,560,0
		l869.4,869.4c154.6,154.6,154.6,405.4,0,560l-869.4,869.4C1409.2,2585.7,1158.5,2585.7,1003.8,2431.1z"/>
</g>
<g id="Text">
	<rect x="20.1" fill="none" width="2549.3" height="2541.7"/>
</g>
</svg>
